<svg xmlns="http://www.w3.org/2000/svg" viewBox="0 0 200 200" width="200" height="200">
  <defs>
    <radialGradient id="bodyGrad" cx="50%" cy="40%" r="60%">
      <stop offset="0%" stop-color="#FFC8DD"/>
      <stop offset="60%" stop-color="#FFA0B4"/>
      <stop offset="100%" stop-color="#FF8FA3"/>
    </radialGradient>
    <radialGradient id="faceGrad" cx="50%" cy="50%" r="50%">
      <stop offset="0%" stop-color="#FFE4D0"/>
      <stop offset="100%" stop-color="#FFCBA4"/>
    </radialGradient>
  </defs>
  <ellipse cx="75" cy="185" rx="14" ry="8" fill="#FF8FA3"/>
  <ellipse cx="125" cy="185" rx="14" ry="8" fill="#FF8FA3"/>
  <ellipse cx="100" cy="110" rx="65" ry="70" fill="url(#bodyGrad)"/>
  <ellipse cx="100" cy="125" rx="42" ry="45" fill="#FFD4E5" opacity="0.6"/>
  <ellipse cx="38" cy="115" rx="12" ry="22" fill="#FFA0B4" transform="rotate(-20 38 115)"/>
  <ellipse cx="162" cy="115" rx="12" ry="22" fill="#FFA0B4" transform="rotate(20 162 115)"/>
  <ellipse cx="100" cy="85" rx="48" ry="42" fill="url(#faceGrad)"/>
  <circle cx="70" cy="98" r="11" fill="#FF6B9D" opacity="0.4"/>
  <circle cx="130" cy="98" r="11" fill="#FF6B9D" opacity="0.4"/>
  <!-- crying eyes - squeezed shut with tears -->
  <path d="M 74 76 Q 82 72 90 76" stroke="#2A1A2A" stroke-width="3" fill="none" stroke-linecap="round"/>
  <path d="M 110 76 Q 118 72 126 76" stroke="#2A1A2A" stroke-width="3" fill="none" stroke-linecap="round"/>
  <!-- tears -->
  <path d="M 86 80 Q 84 90 82 96 Q 80 90 83 82 Z" fill="#7EC8E3" opacity="0.8"/>
  <path d="M 114 80 Q 116 90 118 96 Q 120 90 117 82 Z" fill="#7EC8E3" opacity="0.8"/>
  <!-- wailing mouth - open wide -->
  <ellipse cx="100" cy="105" rx="14" ry="10" fill="#E8344E"/>
  <ellipse cx="100" cy="107" rx="10" ry="6" fill="#FF4D6A"/>
  <path d="M 95 48 Q 100 33 105 48 Q 103 40 100 37 Q 97 40 95 48" fill="#FF8FA3"/>
</svg>
